<?xml version="1.0"?>
<svg xmlns="http://www.w3.org/2000/svg" viewBox="0 0 50 50">
    <path style="line-height:normal;text-indent:0;text-align:start;text-decoration-line:none;text-decoration-style:solid;text-decoration-color:#000;text-transform:none;block-progression:tb;isolation:auto;mix-blend-mode:normal" d="M 9 2 A 1.0001 1.0001 0 0 0 8 3 L 8 23 L 6 23 L 6 24 L 6 29 L 8 29 L 8 47 A 1.0001 1.0001 0 0 0 9 48 L 41 48 A 1.0001 1.0001 0 0 0 42 47 L 42 3 A 1.0001 1.0001 0 0 0 41 2 L 9 2 z M 10 4 L 40 4 L 40 46 L 10 46 L 10 29 L 16 29 L 16 23 L 10 23 L 10 4 z M 18 9 L 18 10 L 18 21 L 32 21 L 32 9 L 18 9 z M 20 11 L 21 11 L 21 19 L 20 19 L 20 11 z M 23 11 L 24 11 L 24 19 L 23 19 L 23 11 z M 26 11 L 27 11 L 27 19 L 26 19 L 26 11 z M 29 11 L 30 11 L 30 19 L 29 19 L 29 11 z M 8 25 L 8.8320312 25 A 1.0001 1.0001 0 0 0 9.1582031 25 L 14 25 L 14 27 L 9.1679688 27 A 1.0001 1.0001 0 0 0 8.8417969 27 L 8 27 L 8 25 z M 18 31 L 18 32 L 18 36 L 32 36 L 32 31 L 18 31 z M 20 33 L 30 33 L 30 34 L 20 34 L 20 33 z"/>
</svg>
